<svg xmlns="http://www.w3.org/2000/svg" version="1.1" viewBox="0 0 1000 1000"><polyline points="0,0 1000,320 0,720 1000,1000 580,0 920,1000 660,0 820,1000 640,0 860,1000 680,0 940,1000 700,0 1000,1000 540,0 980,1000 760,0 1000,1000 660,0 900,1000 580,0 880,1000 640,0 800,1000 660,0 940,1000 760,0 960,1000 0,860 1000,980 780,0 660,1000 820,0 680,1000 780,0 800,1000 620,0 840,1000 660,0 860,1000 700,0 960,1000 0,840 1000,980 720,0 980,1000 580,0 940,1000 0,880 1000,960 800,0 860,1000 580,0 840,1000 640,0 780,1000 680,0 920,1000 700,0 980,1000 780,0 1000,1000 0,820 1000,960 0,920 1000,900 0,960 1000,820 20,1000 1000,800 0,960 1000,880 0,1000 1000,860 0,920 1000,880 0,980 1000,920 800,0 640,1000 820,0 880,1000 660,0 760,1000 620,0 900,1000 680,0 960,1000 720,0 1000,940 20,1000 1000,920 780,0 960,1000 520,0 1000,1000 740,0 900,1000 700,0 740,1000 640,0 900,1000 560,0 860,1000 620,0 820,1000 580,0 800,1000 840,0 900,1000 760,0 920,1000 720,0 940,1000 0,940 340,0 0,1000 1000,760 0,740 980,1000 840,0 1000,980 0,800 1000,1000 0,840 1000,940 0,780 1000,700 0,680 1000,660 0,720 1000,800 0,980 1000,840 0,1000 1000,900 840,0 660,1000 880,0 580,1000 940,0 700,1000 740,0 980,1000 0,920 1000,780 0,640 1000,360 0,600 1000,1000 0,760 1000,740 0,1000 320,0 60,1000 1000,960 760,0 780,1000 620,0 880,1000 680,0 840,1000 540,0 760,1000 700,0 840,1000 600,0 860,1000 720,0 880,1000 700,0 720,1000 580,0 760,1000 900,0 680,1000 860,0 1000,960 820,0 1000,900 0,980 940,1000 780,0 1000,940 0,800 1000,780 20,1000 340,0 40,1000 320,0 80,1000 340,0 120,1000 280,0 160,1000 240,0 220,1000 200,0 260,1000 180,0 240,1000 220,0 200,1000 260,0 180,1000 240,0 140,1000 280,0 100,1000 1000,980 680,0 980,1000 0,900 1000,780 0,720 1000,640 0,740 1000,920 740,0 960,1000 620,0 920,1000 540,0 800,1000 500,0 760,1000 560,0 820,1000 600,0 780,1000 520,0 740,1000 540,0 880,1000 600,0 940,1000 640,0 1000,1000 0,880 1000,940 0,860 1000,720 0,960 980,1000 820,0 1000,1000 720,0 900,1000 0,900 340,0 0,960 1000,860 840,0 1000,920 820,0 960,1000 660,0 980,1000 620,0 940,1000 820,0 600,1000 960,0 540,1000 1000,0 600,1000 880,0 620,1000 800,0 1000,1000 0,860 1000,960 740,0 940,1000 500,0 720,1000 480,0 780,1000 580,0 640,1000 1000,20 980,1000 0,780 1000,580 0,760 1000,820 0,920 320,0 140,1000 200,0 240,1000 120,0 300,1000 100,0 280,1000 120,0 320,1000 80,0 1000,320 0,680 1000,340 0,660 1000,740 0,840 1000,500 0,460 1000,520 0,420 1000,500 0,480 1000,460 0,500 1000,440 0,520 1000,380 0,640 1000,720 0,1000 400,0 40,1000 380,0 0,1000 1000,680 0,700 1000,660 0,800 1000,920 940,0 1000,1000 0,700 1000,620 0,860 1000,840 0,920 1000,940 0,980 1000,960 700,0 820,1000 520,0 860,1000 540,0 940,1000 800,0 980,1000 640,0 920,1000 740,0 880,1000 0,920 1000,980 0,760 1000,940 0,640 1000,320 0,20 1000,260 0,60 360,1000 580,0 960,1000 0,820 1000,760 0,700 1000,940 960,0 780,1000 540,0 720,1000 460,0 760,1000 520,0 400,1000 500,0 840,1000 560,0 880,1000 780,0 920,1000 600,0 800,1000 520,0 0,1000 360,0 0,840 1000,520 0,800 1000,840 0,960 1000,780 0,860 1000,920 860,0 1000,880 0,580 1000,420 0,540 1000,380 0,580 1000,480 0,820 1000,680 0,620 1000,460 0,700 1000,840 0,760 1000,620 0,960 1000,980 0,1000 1000,960 0,900 1000,660 0,740 1000,560 0,800 1000,740 0,640 1000,880 0,940 320,0 20,1000 400,0 60,1000 500,0 680,1000 460,0 480,1000 1000,0 0,220 1000,60 0,140 1000,180 0,120 1000,160 0,60 1000,280 0,0 360,1000 20,0 1000,240 0,780 1000,540 0,920 1000,800 0,780 1000,640 0,980 1000,860 0,840 1000,960 980,0 560,1000 920,0 1000,1000 680,0 820,1000 540,0 380,1000 0,120 1000,200 40,0 1000,360 0,540 1000,500 0,640 1000,620 0,680 1000,220 20,0 1000,260 0,760 1000,900 0,660 1000,700 0,880 1000,980 0,940 1000,1000 620,0 300,1000 140,0 1000,360 0,560 1000,400 0,600 1000,780 0,840 1000,920 0,960 320,0 0,980 340,0 160,1000 260,0 120,1000 300,0 140,1000 500,0 780,1000 560,0 920,1000 880,0 940,1000 960,0 740,1000 500,0 420,1000 460,0 520,1000 940,0 980,1000 600,0 900,1000 540,0 600,1000 780,0 1000,960 0,800 1000,700 0,940 1000,800 0,620 1000,380 120,0 260,1000 20,0 1000,340 0,540 1000,320 0,700 1000,540 0,380 1000,560 0,920 1000,680 0,760 1000,600 0,860 320,0 0,900 1000,760 0,960 820,1000 780,0 840,1000 0,940 1000,920 0,1000 1000,820 0,980 1000,500 0,740 1000,460 0,640 1000,440 0,560 1000,480 0,660 1000,1000 600,0 960,1000 640,0 1000,960 0,780 1000,920 0,680 1000,760 0,920 420,0 700,1000 520,0 160,1000 220,0 1000,400 0,520 1000,420 200,0 180,1000 480,0 660,1000 760,0 1000,980 740,0 760,1000 600,0 40,1000 360,0 20,1000 380,0 520,1000 1000,0 0,240 1000,40 0,120 1000,140 0,180 1000,120 0,40 1000,280 0,20 1000,420 0,700 1000,580 0,720 1000,960 0,940 1000,780 0,740 1000,620 0,920 1000,420 0,500 1000,360 0,0 320,1000 740,0 800,1000 560,0 960,1000 800,0 1000,880 60,1000 420,0 120,1000 1000,840 820,0 1000,860 0,740 1000,980 0,900 1000,460 0,600 1000,220 0,620 1000,340 0,20 1000,200 0,140 1000,160 0,580 1000,820 0,940 300,0 160,1000 1000,960 620,0 320,1000 100,0 1000,180 40,0 360,1000 560,0 940,1000 1000,0 960,1000 900,0 640,1000 500,0 700,1000 960,0 1000,1000 0,580 1000,260 0,540 1000,460 0,720 1000,160 60,0 340,1000 0,0 1000,400 0,900 1000,580 0,620 1000,60 0,120 1000,20 0,260 1000,360 0,40 1000,240 0,0 300,1000 500,0 560,1000 820,0 920,1000 520,0 720,1000 560,0 80,1000 1000,940 0,960 360,0 120,1000 1000,900 0,720 1000,520 0,660 1000,420 0,560 1000,920 0,880 320,0 100,1000 260,0 80,1000 1000,720 0,760 1000,520 0,440 1000,460 0,1000 20,0 1000,200 0,660 1000,680 0,860 1000,740 0,820 1000,540 0,340 1000,520 0,680 1000,440 0,460 1000,420 0,40 1000,100 0,160 1000,120 0,640 1000,920 140,1000 1000,780 980,0 620,1000 460,0 540,1000 920,0 680,1000 520,0 880,1000 0,840 1000,640 0,1000 1000,620 0,800 900,1000 0,880 1000,740 0,920 1000,640 0,820 1000,580 0,660 1000,380 0,20 1000,240 0,80 1000,260 0,620 1000,860 880,0 740,1000 680,0 660,1000 500,0 600,1000 860,0 1000,1000 560,0 980,1000 960,0 820,1000 720,0 180,1000 360,0 520,1000 440,0 0,1000 60,0 1000,140 0,40 1000,300 0,600 1000,100 620,1000 860,0 980,1000 500,0 460,1000 480,0 500,1000 420,0 320,1000 40,0 280,1000 1000,980 700,0 800,1000 940,0 760,1000 0,980 1000,780 0,700 1000,820 960,0 0,200 1000,120 0,0 380,1000 500,0 520,1000 400,0 120,1000 500,0 900,1000 800,0 1000,940 0,820 1000,460 0,780 1000,600 0,960 1000,680 0,800 960,1000 980,0 0,720 1000,360 0,80 1000,320 0,360 1000,520 0,620 1000,760 0,880 360,0 0,940 1000,900 40,1000 1000,840 940,0 740,1000 600,0 640,1000 480,0 160,1000 440,0 740,1000 760,0 1000,920 0,760 1000,400 0,620 1000,440 0,760 1000,640 0,400 1000,480 0,720 1000,600 0,840 1000,720 0,540 1000,220 0,40 1000,200 0,560 1000,280 0,580 1000,400 0,100 1000,40 0,220 1000,580 0,740 1000,20 0,180 980,0 840,1000 740,0 580,1000 440,0 460,1000 520,0 540,1000 600,0 180,1000 280,0 0,1000 1000,800 0,880 1000,640 0,660 1000,160 0,640 1000,820 100,1000 300,0 80,1000 1000,920 0,900 1000,880 0,760 960,1000 840,0 580,1000 560,0 680,1000 620,0 720,1000 660,0 1000,920 0,580 1000,460 300,0 0,920 940,1000 840,0 280,1000 480,0 240,1000 100,0 0,1000 1000,520 0,780 920,1000 1000,0 0,640 1000,560 0,300 1000,340 0,320 1000,380 0,560 1000,800 840,0 820,1000 760,0 200,1000 340,0 100,1000 360,0 160,1000 400,0 0,960 880,1000 0,860 1000,700 0,980 40,0 1000,320 980,1000 920,0 740,1000 720,0 780,1000 980,0 0,100 1000,240 0,60 1000,200 0,0 1000,140 0,620 1000,320 0,560 1000,540 0,900 1000,940 140,1000 560,0 620,1000 520,0 500,1000 380,0 120,1000 440,0 500,1000 560,0 740,1000 820,0 260,1000 500,0 340,1000 20,0 0,880 340,0 0,920 1000,580 0,680 1000,500 0,520 1000,120 0,80 1000,200 0,760" style="fill:none;stroke:black;stroke-width:0.5"/></svg>