<svg xmlns="http://www.w3.org/2000/svg" version="1.1" viewBox="0 0 1000 1000"><polyline points="1000,500 1,469 1000,484 2,453 999,469 0,484 998,453 0,500 994,422 1,531 988,391 6,578 994,422 316,35 996,437 0,516 988,391 316,35 105,806 1000,500 95,794 965,684 41,699 976,655 54,727 988,609 62,741 922,768 531,1 875,831 655,24 806,895 639,20 794,905 755,70 684,965 741,62 727,946 699,41 755,930 741,62 699,959 768,78 806,895 713,48 741,938 806,105 655,976 781,86 713,952 806,105 755,930 831,125 624,984 794,95 727,946 684,35 768,922 854,146 806,895 831,125 594,991 854,146 819,885 639,20 842,864 594,9 806,895 624,16 781,914 831,125 669,970 727,54 885,819 669,30 864,842 594,9 781,914 741,62 655,976 854,146 794,905 609,12 854,854 655,24 831,875 864,158 842,864 563,4 895,806 684,35 713,952 594,9 755,930 639,20 864,842 806,105 609,988 875,169 563,996 854,146 727,946 624,16 831,875 781,86 639,980 594,9 699,959 794,95 895,806 854,146 578,994 895,194 624,984 578,6 684,965 781,86 885,819 842,136 713,952 547,2 885,819 684,35 922,768 16,624 938,741 713,48 594,991 781,86 922,768 594,9 819,885 206,905 245,70 181,885 259,62 194,895 232,78 169,875 245,70 219,914 232,78 158,864 245,70 194,895 831,875 547,2 854,854 794,95 563,996 624,16 875,831 885,181 547,998 831,125 699,959 713,48 864,842 232,922 206,95 245,930 181,115 273,946 938,741 70,755 994,578 48,713 970,669 316,965 115,181 331,970 594,9 547,998 669,30 741,938 854,146 914,781 741,62 624,984 639,20 699,959 516,0 406,991 484,0 952,713 30,669 976,345 24,655 959,699 78,768 998,547 35,684 980,639 62,741 345,24 78,768 639,980 755,70 768,922 206,905 259,62 970,331 20,639 980,361 12,609 988,391 4,563 976,345 12,609 984,624 41,699 996,563 20,639 1000,500 2,547 991,406 9,594 1000,484 30,669 988,609 345,976 959,699 125,831 301,41 115,819 976,655 105,806 922,768 287,952 158,136 885,181 755,930 516,0 655,976 713,48 819,885 768,78 655,976 563,4 516,1000 469,1 422,994 531,1 842,864 794,95 669,970 125,831 699,959 609,12 768,922 699,41 563,996 547,2 376,984 48,287 391,988 500,0 531,999 578,6 594,991 684,35 806,895 864,158 930,755 806,105 905,794 639,20 768,922 181,885 232,78 146,854 952,713 78,768 988,609 20,639 914,781 864,158 938,741 136,842 287,48 980,361 1,531 984,376 16,624 999,531 6,422 999,469 35,684 1000,500 2,453 1000,516 86,781 905,794 699,41 794,905 219,914 755,930 624,16 713,952 484,0 453,998 531,1 727,946 594,9 609,988 699,41 930,755 655,24 781,914 854,146 875,831 741,62 831,875 854,146 125,169 316,965 95,206 345,976 578,6 391,988 531,1 547,998 741,62 806,895 105,806 287,48 988,391 259,62 976,345 316,35 158,864 998,547 12,609 999,469 1,531 996,437 4,563 999,531 62,741 991,594 24,655 1000,516 194,895 794,905 669,30 578,994 594,9 669,970 95,794 316,35 115,819 905,794 169,875 781,914 684,35 755,930 547,2 500,1000 422,6 684,965 624,16 594,991 41,699 885,819 895,194 842,864 768,78 781,914 713,48 831,875 684,35 624,984 516,0 361,980 70,245 316,965 484,0 500,1000 578,6 422,994 500,0 684,965 594,9 655,976 831,125 864,842 794,95 914,781 259,938 194,105 219,914 169,125 259,938 136,158 842,136 794,905 781,86 959,699 35,684 970,669 16,624 994,578 95,794 984,624 70,755 345,24 54,727 996,563 35,316 998,547 2,453 996,437 20,639 952,713 287,952 875,831 181,885 273,54 965,316 232,78 980,361 259,62 998,453 2,547 970,331 9,594 959,301 287,48 86,781 952,713 741,62 713,952 136,842 316,35 232,922 727,946 655,24 755,930 115,819 946,727 864,158 922,768 125,831 376,16 531,999 453,2 469,999 500,0 563,996 578,6 316,965 895,806 864,158 959,699 62,741 316,35 998,453 24,655 875,831 806,105 684,965 115,819 980,639 48,713 578,994 531,1 639,980 655,24 768,922 594,9 406,991 453,2 563,996 361,20 301,959 146,146 895,194 930,755 741,62 938,741 316,965 406,9 78,768 361,20 146,854 624,984 594,9 741,938 639,20 655,976 684,35 864,842 727,54 794,905 655,24 516,1000 594,9 484,1000 437,4 547,998 516,0 484,1000 391,12 259,938 500,0 594,991 547,2 437,996 484,0 245,930 331,30 194,895 287,48 219,914 842,864 684,35 699,959 547,2 639,980 624,16 361,980 391,12 95,794 345,24 86,781 996,563 2,453 999,531 105,806 376,16 287,952 169,125 206,905 854,854 699,41 819,885 794,95 965,684 864,158 905,794 768,78 864,842 854,146 885,819 158,864 181,115 169,875 984,624 24,655 984,376 9,594 998,453 0,516 965,316 331,30 54,727 965,684 181,885 806,895 287,952 484,0 578,994 639,20 609,988 547,2 345,976 361,20 516,1000 437,4 331,970 531,1 516,1000 500,0 301,959 194,105 930,245 624,984 768,78 755,930 713,48 895,806 594,9 794,905 547,2 727,946 70,755 331,30 62,741 930,755 115,819 998,547 24,655 1000,484 2,547 984,376 259,62 991,406 16,624 1000,484 6,578 991,406 0,516 1000,484 54,727 952,713 864,158 158,136 273,946 422,6 158,864 970,669 741,62 594,991 469,1 391,988 406,9 547,998 484,0 376,984 996,563 6,578 976,655 30,669 578,994 563,4 741,938 684,35 669,970 655,24 699,959 854,146 842,864 62,741 970,669 361,980 578,6 655,976 669,30 819,885 727,54 905,794 895,194 684,965 842,136 768,922 781,86 864,842 194,895 484,0 624,984 713,48 946,727 806,105 831,875 70,755 376,16 86,781 639,980 500,0 484,1000 547,2 531,999 639,20 422,994 391,12 136,842 232,78 125,831 259,62 169,875 316,35 345,976 484,0 469,999 406,9 181,885 331,30 259,938 469,1 219,914 345,24 48,713 1000,500 12,609 991,594 41,699 999,469 4,563 980,361 361,20 316,965 194,105 287,952 547,2 406,991 624,16 516,1000 794,95 781,914 699,41 713,952 245,930 437,4 301,959 976,655 864,158 875,831 30,669 999,531 30,331 984,376 316,35 219,914 391,12 331,970 905,794 48,713 988,609 136,842 639,980 819,115 914,781 905,206 819,885 755,70 741,938 655,24 594,991 609,12 655,976 547,2 232,922 406,9 146,854 287,48 169,875 946,727 361,980 469,1 453,998 594,9 563,996 684,35 453,998 437,4 169,875 219,86 115,819 391,12 24,655 994,422 1,469 996,437 30,669 994,578 6,422 996,437 12,609 976,655 146,854 914,781 655,24 547,998 563,4 376,984 594,9 831,875 768,78 578,994 727,54 741,938 500,0 453,998 391,12 20,639 988,391 345,24 206,905 952,713 794,95 594,991 895,194 831,875 259,938 146,146 875,169 854,854 713,48 500,1000 516,0 531,999 854,146 922,768 831,125 965,684 30,669 361,20 273,946 136,158 245,930 885,819 78,768 391,12 500,1000 453,2 345,976 219,86 999,469 0,500 984,376 41,699 999,531 361,980 500,0 273,946 259,62 996,437 2,547 938,259 9,594 1000,516 1,531 996,563 115,819 245,70 146,854 994,578 62,741 563,996 741,62 639,980 684,35 531,999 594,9 854,854 54,727 609,988 655,24 469,999 578,6 755,930 854,146 713,952 669,30 684,965 699,41 895,806 768,78 875,831 930,245 1,531 952,287 713,952 755,70 959,699 819,115 146,146 287,952 422,6 345,976 684,35 391,988 301,41 78,768 946,727 41,699 391,12 301,959 624,16 547,998 713,48 727,946 609,12 391,988 437,4 316,965 669,30 624,984 422,6 437,996 453,2 376,984 62,259 301,959 854,854 755,70 984,624 4,563 1000,500 12,391 998,547 4,563 959,301 741,938 781,86 914,781 54,727 361,20 169,875 391,12 105,806 988,609 169,875 273,54 70,755 976,655 206,905 755,930 819,115 970,669 864,158 980,639 16,624 998,453 115,819 819,885 842,136 115,181 819,115 794,905 895,194 864,842 35,684 331,30 994,422 4,563 905,206 938,741 181,885 624,984 547,2 469,999 624,16 655,976 842,136 206,95 158,864 547,2 361,980 287,48 301,959 469,1 484,1000 669,30 768,922 78,768 819,885 547,2 781,914 316,965 453,2 181,885 516,0 594,991 406,9 115,819 345,24 41,699 998,453 4,563 994,578 9,594 965,684 219,914 422,6 259,938 273,54 158,864 345,24 999,469 259,62 245,930 391,12 376,984 516,0 453,998 563,4 684,965 639,20 713,952 727,54 842,864 655,24 885,819 794,95 922,768 12,609 547,998 819,115 842,864 914,219 639,980 437,4 422,994 741,62 531,999 484,0 684,965 516,0 563,996 831,125" style="fill:none;stroke:black;stroke-width:0.5"/></svg>